<?xml version="1.0" standalone="no"?>
<!DOCTYPE svg PUBLIC "-//W3C//DTD SVG 20010904//EN"
 "http://www.w3.org/TR/2001/REC-SVG-20010904/DTD/svg10.dtd">
<svg version="1.0" xmlns="http://www.w3.org/2000/svg"
 width="512.000000pt" height="512.000000pt" viewBox="0 0 512.000000 512.000000"
 preserveAspectRatio="xMidYMid meet">

<g transform="translate(0.000000,512.000000) scale(0.100000,-0.100000)"
fill="#000000" stroke="none">
<path d="M2375 5110 c-796 -63 -1500 -473 -1939 -1130 -224 -334 -353 -678
-412 -1095 -25 -178 -23 -497 5 -680 72 -478 250 -888 545 -1255 100 -126 313
-330 446 -429 357 -266 710 -414 1176 -493 182 -30 542 -32 724 -4 567 87
1054 332 1449 727 399 399 647 898 723 1453 40 294 26 627 -38 916 -232 1043
-1109 1844 -2164 1975 -150 18 -389 25 -515 15z m-314 -865 c290 -50 535 -216
694 -470 21 -33 38 -61 39 -62 1 -1 33 7 71 18 110 31 277 36 399 11 378 -79
657 -405 682 -797 6 -81 -8 -206 -32 -291 -4 -17 1 -22 38 -33 133 -40 284
-145 365 -254 102 -137 147 -274 147 -442 0 -130 -17 -205 -74 -320 -76 -155
-176 -253 -335 -330 -161 -79 -89 -75 -1493 -75 -1214 0 -1251 1 -1328 20
-212 53 -388 199 -480 397 -47 99 -66 189 -66 309 0 124 25 223 85 338 53 103
179 232 283 291 l70 39 -53 74 c-65 90 -114 191 -150 309 -25 82 -27 100 -27
273 0 173 2 191 27 275 153 502 637 808 1138 720z"/>
</g>
</svg>
